<svg id="svg" version="1.1" xmlns="http://www.w3.org/2000/svg" xmlns:xlink="http://www.w3.org/1999/xlink" width="400" height="400" viewBox="0, 0,400,400"><g id="svgg"><path id="path0" d="M183.338 2.217 C 183.160 2.682,182.154 2.800,178.357 2.800 C 175.452 2.800,173.600 2.956,173.600 3.200 C 173.600 3.433,172.276 3.600,170.429 3.600 C 168.143 3.600,167.090 3.768,166.657 4.200 C 166.229 4.628,165.186 4.800,163.016 4.800 C 160.682 4.800,159.921 4.939,159.745 5.400 C 159.584 5.818,158.932 6.000,157.591 6.000 C 156.532 6.000,155.607 6.160,155.533 6.355 C 155.460 6.550,154.508 6.797,153.417 6.903 C 152.327 7.009,151.367 7.300,151.284 7.548 C 151.199 7.802,150.273 8.000,149.167 8.000 C 147.685 8.000,147.200 8.148,147.200 8.600 C 147.200 9.032,146.758 9.200,145.624 9.200 C 144.757 9.200,143.936 9.380,143.800 9.600 C 143.664 9.820,142.968 10.000,142.253 10.000 C 141.538 10.000,140.604 10.264,140.176 10.587 C 139.749 10.910,138.725 11.180,137.900 11.187 C 136.839 11.196,136.400 11.376,136.400 11.800 C 136.400 12.233,135.956 12.400,134.800 12.400 C 133.920 12.400,133.200 12.580,133.200 12.800 C 133.200 13.020,132.480 13.200,131.600 13.200 C 130.444 13.200,130.000 13.367,130.000 13.800 C 130.000 14.166,129.627 14.400,129.043 14.400 C 128.516 14.400,127.977 14.682,127.845 15.028 C 127.679 15.460,127.339 15.571,126.752 15.385 C 126.218 15.215,125.993 15.266,126.150 15.520 C 126.301 15.764,126.083 15.842,125.601 15.716 C 125.160 15.601,124.800 15.696,124.800 15.927 C 124.800 16.158,124.305 16.404,123.700 16.473 C 123.081 16.545,122.644 16.819,122.700 17.100 C 122.762 17.411,122.347 17.600,121.600 17.600 C 120.854 17.600,120.400 17.806,120.400 18.145 C 120.400 18.489,120.031 18.649,119.400 18.580 C 118.754 18.509,118.400 18.670,118.400 19.035 C 118.400 19.415,117.937 19.600,116.987 19.600 C 116.101 19.600,115.489 19.823,115.345 20.200 C 115.218 20.530,114.703 20.800,114.200 20.800 C 113.697 20.800,113.175 21.089,113.039 21.442 C 112.887 21.840,112.544 21.987,112.136 21.831 C 111.739 21.679,111.185 21.894,110.737 22.376 C 110.328 22.814,109.726 23.070,109.397 22.944 C 109.020 22.799,108.800 22.952,108.800 23.357 C 108.800 23.776,108.452 24.000,107.800 24.000 C 107.250 24.000,106.800 24.180,106.800 24.400 C 106.800 24.620,106.390 24.800,105.889 24.800 C 104.996 24.800,103.600 26.023,103.600 26.805 C 103.600 27.022,103.060 27.200,102.400 27.200 C 101.740 27.200,101.200 27.380,101.200 27.600 C 101.200 27.820,100.729 28.000,100.153 28.000 C 99.341 28.000,99.149 28.162,99.296 28.722 C 99.452 29.319,99.286 29.415,98.342 29.277 C 97.489 29.152,97.200 29.272,97.200 29.755 C 97.200 30.110,96.911 30.400,96.557 30.400 C 96.191 30.400,96.001 30.626,96.116 30.925 C 96.261 31.304,95.997 31.402,95.159 31.279 C 94.289 31.152,94.000 31.270,94.000 31.755 C 94.000 32.110,93.730 32.400,93.400 32.400 C 93.070 32.400,92.800 32.670,92.800 33.000 C 92.800 33.346,92.438 33.600,91.946 33.600 C 91.476 33.600,90.675 34.050,90.165 34.600 C 89.655 35.150,88.870 35.600,88.419 35.600 C 87.958 35.600,87.600 35.862,87.600 36.200 C 87.600 36.530,87.330 36.800,87.000 36.800 C 86.670 36.800,86.400 36.980,86.400 37.200 C 86.400 37.420,85.950 37.600,85.400 37.600 C 84.778 37.600,84.400 37.827,84.400 38.200 C 84.400 38.530,84.130 38.800,83.800 38.800 C 83.470 38.800,83.200 38.977,83.200 39.192 C 83.200 39.408,82.750 39.698,82.200 39.836 C 81.650 39.974,81.200 40.247,81.200 40.443 C 81.200 40.640,80.930 40.800,80.600 40.800 C 80.270 40.800,80.000 40.978,80.000 41.195 C 80.000 41.810,78.696 43.183,78.329 42.956 C 78.148 42.844,78.000 43.033,78.000 43.376 C 78.000 43.775,77.639 44.000,77.000 44.000 C 76.378 44.000,76.000 44.227,76.000 44.600 C 76.000 44.930,75.730 45.200,75.400 45.200 C 75.070 45.200,74.800 45.399,74.800 45.643 C 74.800 45.886,75.070 45.982,75.400 45.855 C 75.730 45.729,76.000 45.811,76.000 46.038 C 76.000 46.265,75.685 46.402,75.300 46.343 C 74.427 46.210,72.800 47.221,72.800 47.896 C 72.800 48.173,72.620 48.400,72.400 48.400 C 71.869 48.400,70.400 49.887,70.400 50.424 C 70.400 50.657,70.220 50.736,70.000 50.600 C 69.780 50.464,69.600 50.633,69.600 50.976 C 69.600 51.375,69.239 51.600,68.600 51.600 C 68.050 51.600,67.600 51.780,67.600 52.000 C 67.600 52.220,67.330 52.400,67.000 52.400 C 66.670 52.400,66.400 52.670,66.400 53.000 C 66.400 53.330,66.130 53.600,65.800 53.600 C 65.470 53.600,65.200 53.793,65.200 54.029 C 65.200 54.582,64.182 55.600,63.629 55.600 C 63.393 55.600,63.200 55.870,63.200 56.200 C 63.200 56.530,62.930 56.800,62.600 56.800 C 62.270 56.800,62.000 56.993,62.000 57.229 C 62.000 57.782,60.982 58.800,60.429 58.800 C 60.193 58.800,60.000 59.070,60.000 59.400 C 60.000 59.730,59.730 60.000,59.400 60.000 C 59.070 60.000,58.800 60.193,58.800 60.429 C 58.800 60.982,57.782 62.000,57.229 62.000 C 56.993 62.000,56.800 62.270,56.800 62.600 C 56.800 62.930,56.530 63.200,56.200 63.200 C 55.870 63.200,55.600 63.393,55.600 63.629 C 55.600 64.182,54.582 65.200,54.029 65.200 C 53.793 65.200,53.600 65.470,53.600 65.800 C 53.600 66.130,53.330 66.400,53.000 66.400 C 52.670 66.400,52.400 66.670,52.400 67.000 C 52.400 67.330,52.220 67.600,52.000 67.600 C 51.780 67.600,51.600 68.050,51.600 68.600 C 51.600 69.222,51.373 69.600,51.000 69.600 C 50.670 69.600,50.400 69.870,50.400 70.200 C 50.400 70.530,50.207 70.800,49.971 70.800 C 49.418 70.800,48.400 71.818,48.400 72.371 C 48.400 72.607,48.173 72.800,47.896 72.800 C 47.221 72.800,46.210 74.427,46.343 75.300 C 46.402 75.685,46.265 76.000,46.038 76.000 C 45.811 76.000,45.729 75.730,45.855 75.400 C 45.982 75.070,45.886 74.800,45.643 74.800 C 45.399 74.800,45.200 75.070,45.200 75.400 C 45.200 75.730,44.930 76.000,44.600 76.000 C 44.227 76.000,44.000 76.378,44.000 77.000 C 44.000 77.639,43.775 78.000,43.376 78.000 C 43.033 78.000,42.844 78.148,42.956 78.329 C 43.183 78.696,41.810 80.000,41.195 80.000 C 40.978 80.000,40.800 80.270,40.800 80.600 C 40.800 80.930,40.640 81.200,40.443 81.200 C 40.247 81.200,39.974 81.650,39.836 82.200 C 39.698 82.750,39.408 83.200,39.192 83.200 C 38.977 83.200,38.800 83.470,38.800 83.800 C 38.800 84.130,38.530 84.400,38.200 84.400 C 37.827 84.400,37.600 84.778,37.600 85.400 C 37.600 85.950,37.420 86.400,37.200 86.400 C 36.980 86.400,36.800 86.670,36.800 87.000 C 36.800 87.330,36.530 87.600,36.200 87.600 C 35.862 87.600,35.600 87.958,35.600 88.419 C 35.600 88.870,35.150 89.655,34.600 90.165 C 34.050 90.675,33.600 91.476,33.600 91.946 C 33.600 92.438,33.346 92.800,33.000 92.800 C 32.670 92.800,32.400 93.070,32.400 93.400 C 32.400 93.730,32.110 94.000,31.755 94.000 C 31.270 94.000,31.152 94.289,31.279 95.159 C 31.402 95.997,31.304 96.261,30.925 96.116 C 30.626 96.001,30.400 96.191,30.400 96.557 C 30.400 96.911,30.110 97.200,29.755 97.200 C 29.272 97.200,29.152 97.489,29.277 98.342 C 29.415 99.286,29.319 99.452,28.722 99.296 C 28.162 99.149,28.000 99.341,28.000 100.153 C 28.000 100.729,27.820 101.200,27.600 101.200 C 27.380 101.200,27.200 101.740,27.200 102.400 C 27.200 103.060,27.022 103.600,26.805 103.600 C 26.023 103.600,24.800 104.996,24.800 105.889 C 24.800 106.390,24.620 106.800,24.400 106.800 C 24.180 106.800,24.000 107.250,24.000 107.800 C 24.000 108.452,23.776 108.800,23.357 108.800 C 22.952 108.800,22.799 109.020,22.944 109.397 C 23.070 109.726,22.814 110.328,22.376 110.737 C 21.894 111.185,21.679 111.739,21.831 112.136 C 21.987 112.544,21.840 112.887,21.442 113.039 C 21.089 113.175,20.800 113.697,20.800 114.200 C 20.800 114.703,20.530 115.218,20.200 115.345 C 19.823 115.489,19.600 116.101,19.600 116.987 C 19.600 117.937,19.415 118.400,19.035 118.400 C 18.670 118.400,18.509 118.754,18.580 119.400 C 18.649 120.031,18.489 120.400,18.145 120.400 C 17.806 120.400,17.600 120.854,17.600 121.600 C 17.600 122.347,17.411 122.762,17.100 122.700 C 16.819 122.644,16.545 123.081,16.473 123.700 C 16.404 124.305,16.158 124.800,15.927 124.800 C 15.696 124.800,15.601 125.160,15.716 125.601 C 15.842 126.083,15.764 126.301,15.520 126.150 C 15.266 125.993,15.215 126.218,15.385 126.752 C 15.571 127.339,15.460 127.679,15.028 127.845 C 14.682 127.977,14.400 128.516,14.400 129.043 C 14.400 129.627,14.166 130.000,13.800 130.000 C 13.367 130.000,13.200 130.444,13.200 131.600 C 13.200 132.480,13.020 133.200,12.800 133.200 C 12.580 133.200,12.400 133.920,12.400 134.800 C 12.400 135.956,12.233 136.400,11.800 136.400 C 11.376 136.400,11.196 136.839,11.187 137.900 C 11.180 138.725,10.910 139.749,10.587 140.176 C 10.264 140.604,10.000 141.538,10.000 142.253 C 10.000 142.968,9.820 143.664,9.600 143.800 C 9.380 143.936,9.200 144.757,9.200 145.624 C 9.200 146.758,9.032 147.200,8.600 147.200 C 8.147 147.200,8.000 147.689,8.000 149.200 C 8.000 150.711,7.853 151.200,7.400 151.200 C 6.939 151.200,6.800 151.711,6.800 153.400 C 6.800 154.610,6.620 155.600,6.400 155.600 C 6.180 155.600,6.000 156.481,6.000 157.557 C 6.000 158.928,5.820 159.583,5.400 159.745 C 4.939 159.921,4.800 160.682,4.800 163.016 C 4.800 165.186,4.628 166.229,4.200 166.657 C 3.768 167.090,3.600 168.143,3.600 170.429 C 3.600 172.276,3.433 173.600,3.200 173.600 C 2.956 173.600,2.800 175.452,2.800 178.357 C 2.800 182.154,2.682 183.160,2.217 183.338 C 1.720 183.529,1.635 186.050,1.635 200.600 C 1.635 215.150,1.720 217.671,2.217 217.862 C 2.680 218.040,2.800 219.018,2.800 222.619 C 2.800 225.210,2.971 227.259,3.200 227.400 C 3.420 227.536,3.600 229.064,3.600 230.795 C 3.600 233.060,3.768 234.111,4.200 234.543 C 4.628 234.971,4.800 236.013,4.800 238.171 C 4.800 240.597,4.919 241.200,5.400 241.200 C 5.861 241.200,6.000 241.711,6.000 243.400 C 6.000 244.610,6.171 245.600,6.379 245.600 C 6.588 245.600,6.813 246.545,6.879 247.700 C 6.961 249.118,7.162 249.768,7.500 249.700 C 7.852 249.630,8.000 250.253,8.000 251.800 C 8.000 253.489,8.139 254.000,8.600 254.000 C 9.033 254.000,9.200 254.444,9.200 255.600 C 9.200 256.480,9.380 257.200,9.600 257.200 C 9.820 257.200,10.000 257.907,10.000 258.771 C 10.000 259.702,10.271 260.614,10.663 261.006 C 11.054 261.397,11.306 262.238,11.275 263.052 C 11.242 263.937,11.435 264.515,11.812 264.660 C 12.190 264.805,12.400 265.441,12.400 266.443 C 12.400 267.299,12.580 268.000,12.800 268.000 C 13.020 268.000,13.200 268.636,13.200 269.413 C 13.200 270.299,13.423 270.911,13.800 271.055 C 14.130 271.182,14.400 271.697,14.400 272.200 C 14.400 272.703,14.682 273.223,15.028 273.355 C 15.417 273.504,15.568 273.871,15.426 274.319 C 15.300 274.717,15.461 275.393,15.785 275.821 C 16.109 276.249,16.380 277.005,16.387 277.500 C 16.395 278.028,16.648 278.400,17.000 278.400 C 17.395 278.400,17.600 278.795,17.600 279.553 C 17.600 280.357,17.834 280.768,18.374 280.909 C 18.933 281.055,19.087 281.346,18.927 281.956 C 18.780 282.521,18.894 282.800,19.273 282.800 C 19.684 282.800,19.795 283.182,19.676 284.196 C 19.557 285.215,19.687 285.659,20.157 285.839 C 20.511 285.975,20.800 286.516,20.800 287.043 C 20.800 287.610,21.035 288.000,21.377 288.000 C 21.743 288.000,21.896 288.299,21.796 288.820 C 21.706 289.286,21.889 289.736,22.219 289.863 C 22.539 289.985,22.800 290.522,22.800 291.055 C 22.800 291.589,23.070 292.129,23.400 292.255 C 23.730 292.382,24.000 292.916,24.000 293.443 C 24.000 293.969,24.180 294.400,24.400 294.400 C 24.620 294.400,24.800 294.766,24.800 295.213 C 24.800 295.659,25.070 296.129,25.400 296.255 C 25.730 296.382,26.000 296.736,26.000 297.043 C 26.000 297.349,26.270 297.600,26.600 297.600 C 26.973 297.600,27.200 297.978,27.200 298.600 C 27.200 299.150,27.380 299.600,27.600 299.600 C 27.820 299.600,28.000 300.056,28.000 300.613 C 28.000 301.169,28.270 301.729,28.600 301.855 C 28.930 301.982,29.200 302.432,29.200 302.855 C 29.200 303.279,29.470 303.729,29.800 303.855 C 30.130 303.982,30.400 304.336,30.400 304.643 C 30.400 304.949,30.580 305.200,30.800 305.200 C 31.020 305.200,31.200 305.566,31.200 306.013 C 31.200 306.459,31.470 306.929,31.800 307.055 C 32.130 307.182,32.400 307.536,32.400 307.843 C 32.400 308.149,32.670 308.400,33.000 308.400 C 33.362 308.400,33.600 308.770,33.600 309.332 C 33.600 309.918,33.972 310.464,34.600 310.800 C 35.305 311.177,35.600 311.669,35.600 312.468 C 35.600 313.090,35.793 313.600,36.029 313.600 C 36.706 313.600,37.600 314.672,37.600 315.483 C 37.600 316.185,38.873 317.600,39.505 317.600 C 39.667 317.600,39.826 318.044,39.857 318.586 C 39.916 319.614,40.834 320.800,41.571 320.800 C 41.807 320.800,42.000 320.989,42.000 321.219 C 42.000 321.450,42.450 322.055,43.000 322.565 C 43.550 323.075,44.000 323.792,44.000 324.158 C 44.000 324.525,44.270 324.929,44.600 325.055 C 44.930 325.182,45.200 325.536,45.200 325.843 C 45.200 326.149,45.492 326.400,45.849 326.400 C 46.410 326.400,46.423 326.305,45.949 325.700 C 45.451 325.065,45.465 325.051,46.105 325.553 C 46.646 325.977,46.704 326.233,46.356 326.653 C 46.004 327.077,46.047 327.200,46.551 327.200 C 46.908 327.200,47.200 327.470,47.200 327.800 C 47.200 328.130,47.470 328.400,47.800 328.400 C 48.130 328.400,48.400 328.670,48.400 329.000 C 48.400 329.330,48.681 329.600,49.024 329.600 C 49.367 329.600,49.536 329.780,49.400 330.000 C 49.264 330.220,49.433 330.400,49.776 330.400 C 50.119 330.400,50.400 330.670,50.400 331.000 C 50.400 331.330,50.670 331.600,51.000 331.600 C 51.373 331.600,51.600 331.978,51.600 332.600 C 51.600 333.150,51.780 333.600,52.000 333.600 C 52.220 333.600,52.400 333.870,52.400 334.200 C 52.400 334.530,52.574 334.800,52.786 334.800 C 53.309 334.800,55.600 337.069,55.600 337.587 C 55.600 337.814,55.870 338.000,56.200 338.000 C 56.530 338.000,56.800 338.199,56.800 338.443 C 56.800 338.686,57.070 338.782,57.400 338.655 C 57.774 338.512,58.000 338.658,58.000 339.043 C 58.000 339.744,60.113 342.000,60.769 342.000 C 61.006 342.000,61.200 342.270,61.200 342.600 C 61.200 342.930,61.380 343.200,61.600 343.200 C 61.820 343.200,62.000 343.470,62.000 343.800 C 62.000 344.130,62.194 344.400,62.431 344.400 C 63.016 344.400,65.200 346.621,65.200 347.216 C 65.200 347.490,65.528 347.608,65.970 347.492 C 66.510 347.351,66.677 347.456,66.527 347.845 C 66.400 348.176,66.573 348.400,66.957 348.400 C 67.311 348.400,67.600 348.670,67.600 349.000 C 67.600 349.373,67.978 349.600,68.600 349.600 C 69.166 349.600,69.600 349.831,69.600 350.132 C 69.600 350.425,70.050 350.906,70.600 351.200 C 71.150 351.494,71.600 351.954,71.600 352.221 C 71.600 352.488,71.997 352.811,72.483 352.937 C 72.968 353.064,73.246 353.287,73.102 353.432 C 72.693 353.840,73.952 354.904,74.565 354.669 C 74.943 354.524,75.048 354.695,74.908 355.230 C 74.771 355.756,74.912 356.000,75.353 356.000 C 75.709 356.000,76.000 356.177,76.000 356.392 C 76.000 356.608,76.450 356.898,77.000 357.036 C 77.550 357.174,78.000 357.447,78.000 357.643 C 78.000 357.840,78.270 358.000,78.600 358.000 C 78.930 358.000,79.200 358.194,79.200 358.431 C 79.200 359.185,81.506 361.200,82.369 361.200 C 82.841 361.200,83.200 361.459,83.200 361.800 C 83.200 362.130,83.470 362.400,83.800 362.400 C 84.130 362.400,84.400 362.580,84.400 362.800 C 84.400 363.020,84.850 363.200,85.400 363.200 C 86.022 363.200,86.400 363.427,86.400 363.800 C 86.400 364.130,86.670 364.400,87.000 364.400 C 87.330 364.400,87.600 364.670,87.600 365.000 C 87.600 365.373,87.978 365.600,88.600 365.600 C 89.150 365.600,89.600 365.780,89.600 366.000 C 89.600 366.220,89.870 366.400,90.200 366.400 C 90.530 366.400,90.800 366.670,90.800 367.000 C 90.800 367.373,91.178 367.600,91.800 367.600 C 92.422 367.600,92.800 367.827,92.800 368.200 C 92.800 368.530,93.070 368.800,93.400 368.800 C 93.730 368.800,94.000 368.980,94.000 369.200 C 94.000 369.420,94.450 369.600,95.000 369.600 C 95.622 369.600,96.000 369.827,96.000 370.200 C 96.000 370.530,96.270 370.800,96.600 370.800 C 96.930 370.800,97.200 370.977,97.200 371.192 C 97.200 371.408,97.650 371.698,98.200 371.836 C 98.750 371.974,99.200 372.247,99.200 372.443 C 99.200 372.640,99.650 372.800,100.200 372.800 C 100.822 372.800,101.200 373.027,101.200 373.400 C 101.200 373.800,101.600 374.000,102.400 374.000 C 103.060 374.000,103.600 374.193,103.600 374.429 C 103.600 375.192,104.717 376.000,105.771 376.000 C 106.419 376.000,106.800 376.222,106.800 376.600 C 106.800 376.966,107.173 377.200,107.757 377.200 C 108.284 377.200,108.818 377.470,108.945 377.800 C 109.071 378.130,109.541 378.400,109.987 378.400 C 110.434 378.400,110.800 378.580,110.800 378.800 C 110.800 379.020,111.340 379.200,112.000 379.200 C 112.800 379.200,113.200 379.400,113.200 379.800 C 113.200 380.173,113.578 380.400,114.200 380.400 C 114.750 380.400,115.200 380.564,115.200 380.765 C 115.200 380.966,115.920 381.251,116.800 381.400 C 117.680 381.549,118.400 381.834,118.400 382.035 C 118.400 382.236,118.591 382.400,118.824 382.400 C 119.057 382.400,119.122 382.197,118.968 381.948 C 118.799 381.675,118.908 381.567,119.244 381.674 C 119.550 381.772,119.978 382.245,120.195 382.726 C 120.463 383.319,120.946 383.600,121.695 383.600 C 122.366 383.600,122.761 383.797,122.700 384.100 C 122.645 384.375,122.984 384.606,123.454 384.613 C 123.924 384.620,124.585 384.856,124.924 385.137 C 125.263 385.419,125.779 385.616,126.070 385.577 C 127.297 385.411,128.000 385.638,128.000 386.200 C 128.000 386.573,128.378 386.800,129.000 386.800 C 129.550 386.800,130.000 386.980,130.000 387.200 C 130.000 387.420,130.889 387.600,131.976 387.600 C 133.063 387.600,134.063 387.778,134.197 387.995 C 134.337 388.222,134.177 388.289,133.821 388.153 C 133.479 388.022,133.200 388.114,133.200 388.357 C 133.200 388.605,133.885 388.800,134.757 388.800 C 135.772 388.800,136.395 389.009,136.545 389.400 C 136.688 389.774,137.298 390.000,138.164 390.000 C 138.928 390.000,139.664 390.180,139.800 390.400 C 139.936 390.620,140.827 390.800,141.781 390.800 C 142.938 390.800,143.590 390.996,143.740 391.388 C 143.888 391.774,144.471 391.958,145.430 391.922 C 146.422 391.885,147.014 392.082,147.267 392.533 C 147.528 393.000,148.174 393.200,149.420 393.200 C 150.399 393.200,151.200 393.380,151.200 393.600 C 151.200 393.820,152.190 394.000,153.400 394.000 C 155.089 394.000,155.600 394.139,155.600 394.600 C 155.600 395.046,156.070 395.200,157.429 395.200 C 158.521 395.200,159.499 395.442,159.857 395.800 C 160.283 396.226,161.321 396.400,163.429 396.400 C 165.143 396.400,166.400 396.569,166.400 396.800 C 166.400 397.037,167.852 397.200,169.957 397.200 C 172.750 397.200,173.564 397.329,173.745 397.800 C 173.930 398.283,174.837 398.400,178.416 398.400 C 181.890 398.400,182.992 398.535,183.476 399.019 C 184.307 399.850,217.622 399.735,217.900 398.900 C 218.010 398.570,218.929 398.400,220.600 398.400 C 222.252 398.400,223.203 398.226,223.335 397.900 C 223.496 397.500,223.543 397.500,223.568 397.900 C 223.616 398.656,227.162 398.565,227.455 397.800 C 227.635 397.333,228.425 397.200,231.019 397.200 C 232.853 397.200,234.464 397.020,234.600 396.800 C 234.736 396.580,236.192 396.400,237.836 396.400 C 240.124 396.400,240.879 396.259,241.055 395.800 C 241.221 395.369,241.894 395.200,243.443 395.200 C 245.094 395.200,245.600 395.059,245.600 394.600 C 245.600 394.139,246.114 394.000,247.824 394.000 C 249.204 394.000,249.953 393.848,249.800 393.600 C 249.648 393.353,250.333 393.200,251.589 393.200 C 253.030 393.200,253.692 393.025,253.855 392.600 C 254.005 392.209,254.628 392.000,255.643 392.000 C 256.760 392.000,257.200 391.831,257.200 391.400 C 257.200 390.947,257.689 390.800,259.200 390.800 C 260.300 390.800,261.200 390.620,261.200 390.400 C 261.200 390.180,261.926 390.000,262.813 390.000 C 263.877 390.000,264.503 389.796,264.655 389.400 C 264.805 389.009,265.428 388.800,266.443 388.800 C 267.560 388.800,268.000 388.631,268.000 388.200 C 268.000 387.767,268.444 387.600,269.600 387.600 C 270.480 387.600,271.200 387.420,271.200 387.200 C 271.200 386.980,271.650 386.800,272.200 386.800 C 272.822 386.800,273.200 386.573,273.200 386.200 C 273.200 385.783,273.620 385.600,274.576 385.600 C 275.333 385.600,276.064 385.420,276.200 385.200 C 276.336 384.980,276.802 384.800,277.236 384.800 C 277.670 384.800,278.129 384.530,278.255 384.200 C 278.382 383.870,278.922 383.600,279.455 383.600 C 279.989 383.600,280.529 383.330,280.655 383.000 C 280.782 382.670,281.316 382.400,281.843 382.400 C 282.369 382.400,282.800 382.220,282.800 382.000 C 282.800 381.780,283.216 381.600,283.724 381.600 C 284.231 381.600,284.996 381.315,285.424 380.967 C 286.117 380.402,286.123 380.359,285.479 380.563 C 285.083 380.688,284.861 380.625,284.987 380.422 C 285.112 380.219,285.841 380.154,286.607 380.279 C 287.721 380.459,288.000 380.374,288.000 379.852 C 288.000 379.423,288.342 379.200,289.000 379.200 C 289.550 379.200,290.000 379.020,290.000 378.800 C 290.000 378.580,290.456 378.400,291.013 378.400 C 291.569 378.400,292.129 378.130,292.255 377.800 C 292.382 377.470,292.916 377.200,293.443 377.200 C 294.027 377.200,294.400 376.966,294.400 376.600 C 294.400 376.021,294.847 375.833,295.900 375.970 C 296.175 376.006,296.400 375.847,296.400 375.618 C 296.400 375.388,296.670 375.200,297.000 375.200 C 297.330 375.200,297.600 374.930,297.600 374.600 C 297.600 374.227,297.978 374.000,298.600 374.000 C 299.222 374.000,299.600 373.773,299.600 373.400 C 299.600 373.000,300.000 372.800,300.800 372.800 C 301.460 372.800,302.000 372.640,302.000 372.443 C 302.000 372.247,302.466 371.970,303.036 371.827 C 303.682 371.665,303.995 371.364,303.866 371.029 C 303.724 370.658,303.899 370.553,304.430 370.692 C 304.956 370.829,305.200 370.688,305.200 370.247 C 305.200 369.842,305.538 369.600,306.105 369.600 C 306.604 369.600,307.347 369.151,307.761 368.600 C 308.191 368.028,308.916 367.600,309.456 367.600 C 310.028 367.600,310.400 367.364,310.400 367.000 C 310.400 366.670,310.670 366.400,311.000 366.400 C 311.330 366.400,311.600 366.220,311.600 366.000 C 311.600 365.780,312.050 365.600,312.600 365.600 C 313.222 365.600,313.600 365.373,313.600 365.000 C 313.600 364.670,313.780 364.400,314.000 364.400 C 314.220 364.400,314.400 364.130,314.400 363.800 C 314.400 363.219,314.849 363.033,315.909 363.172 C 316.504 363.250,317.600 362.250,317.600 361.629 C 317.600 361.393,318.056 361.200,318.613 361.200 C 319.169 361.200,319.728 360.931,319.854 360.602 C 319.981 360.274,320.245 360.104,320.442 360.226 C 320.639 360.348,320.800 360.167,320.800 359.824 C 320.800 359.481,321.070 359.200,321.400 359.200 C 321.730 359.200,322.000 358.930,322.000 358.600 C 322.000 358.270,322.270 358.000,322.600 358.000 C 322.930 358.000,323.200 357.832,323.200 357.627 C 323.200 357.422,323.579 357.134,324.043 356.986 C 325.290 356.590,326.400 355.519,326.400 354.711 C 326.400 354.219,326.708 354.000,327.400 354.000 C 328.022 354.000,328.400 353.773,328.400 353.400 C 328.400 353.070,328.670 352.800,329.000 352.800 C 329.330 352.800,329.600 352.607,329.600 352.371 C 329.600 351.818,330.618 350.800,331.171 350.800 C 331.407 350.800,331.600 350.530,331.600 350.200 C 331.600 349.827,331.978 349.600,332.600 349.600 C 333.222 349.600,333.600 349.373,333.600 349.000 C 333.600 348.670,333.778 348.400,333.995 348.400 C 334.506 348.400,336.000 347.124,336.000 346.687 C 336.000 346.503,335.792 346.481,335.538 346.638 C 335.259 346.811,335.185 346.748,335.351 346.479 C 335.502 346.235,335.890 346.136,336.213 346.260 C 336.579 346.401,336.800 346.244,336.800 345.843 C 336.800 345.489,336.993 345.200,337.229 345.200 C 337.782 345.200,338.800 344.182,338.800 343.629 C 338.800 343.393,339.070 343.200,339.400 343.200 C 339.730 343.200,340.000 342.930,340.000 342.600 C 340.000 342.270,340.193 342.000,340.429 342.000 C 340.982 342.000,342.000 340.982,342.000 340.429 C 342.000 340.193,342.270 340.000,342.600 340.000 C 342.930 340.000,343.200 339.730,343.200 339.400 C 343.200 339.070,343.393 338.800,343.629 338.800 C 344.182 338.800,345.200 337.782,345.200 337.229 C 345.200 336.993,345.489 336.800,345.843 336.800 C 346.244 336.800,346.401 336.579,346.260 336.213 C 346.136 335.890,346.235 335.502,346.479 335.351 C 346.748 335.185,346.811 335.259,346.638 335.538 C 346.481 335.792,346.503 336.000,346.687 336.000 C 347.124 336.000,348.400 334.506,348.400 333.995 C 348.400 333.778,348.670 333.600,349.000 333.600 C 349.373 333.600,349.600 333.222,349.600 332.600 C 349.600 331.978,349.827 331.600,350.200 331.600 C 350.530 331.600,350.800 331.407,350.800 331.171 C 350.800 330.618,351.818 329.600,352.371 329.600 C 352.607 329.600,352.800 329.330,352.800 329.000 C 352.800 328.670,353.070 328.400,353.400 328.400 C 353.773 328.400,354.000 328.022,354.000 327.400 C 354.000 326.708,354.219 326.400,354.711 326.400 C 355.519 326.400,356.590 325.290,356.986 324.043 C 357.134 323.579,357.422 323.200,357.627 323.200 C 357.832 323.200,358.000 322.930,358.000 322.600 C 358.000 322.270,358.270 322.000,358.600 322.000 C 358.930 322.000,359.200 321.730,359.200 321.400 C 359.200 321.070,359.481 320.800,359.824 320.800 C 360.167 320.800,360.348 320.639,360.226 320.442 C 360.104 320.245,360.274 319.981,360.602 319.854 C 360.931 319.728,361.200 319.169,361.200 318.613 C 361.200 318.056,361.393 317.600,361.629 317.600 C 362.250 317.600,363.250 316.504,363.172 315.909 C 363.033 314.849,363.219 314.400,363.800 314.400 C 364.130 314.400,364.400 314.220,364.400 314.000 C 364.400 313.780,364.670 313.600,365.000 313.600 C 365.373 313.600,365.600 313.222,365.600 312.600 C 365.600 312.050,365.780 311.600,366.000 311.600 C 366.220 311.600,366.400 311.330,366.400 311.000 C 366.400 310.670,366.670 310.400,367.000 310.400 C 367.364 310.400,367.600 310.028,367.600 309.456 C 367.600 308.916,368.028 308.191,368.600 307.761 C 369.151 307.347,369.600 306.604,369.600 306.105 C 369.600 305.538,369.842 305.200,370.247 305.200 C 370.688 305.200,370.829 304.956,370.692 304.430 C 370.553 303.899,370.658 303.724,371.029 303.866 C 371.364 303.995,371.665 303.682,371.827 303.036 C 371.970 302.466,372.247 302.000,372.443 302.000 C 372.640 302.000,372.800 301.460,372.800 300.800 C 372.800 300.000,373.000 299.600,373.400 299.600 C 373.773 299.600,374.000 299.222,374.000 298.600 C 374.000 297.978,374.227 297.600,374.600 297.600 C 374.930 297.600,375.200 297.330,375.200 297.000 C 375.200 296.670,375.388 296.400,375.618 296.400 C 375.847 296.400,376.006 296.175,375.970 295.900 C 375.833 294.847,376.021 294.400,376.600 294.400 C 376.966 294.400,377.200 294.027,377.200 293.443 C 377.200 292.916,377.470 292.382,377.800 292.255 C 378.130 292.129,378.400 291.569,378.400 291.013 C 378.400 290.456,378.580 290.000,378.800 290.000 C 379.020 290.000,379.200 289.550,379.200 289.000 C 379.200 288.342,379.423 288.000,379.852 288.000 C 380.374 288.000,380.459 287.721,380.279 286.607 C 380.154 285.841,380.219 285.112,380.422 284.987 C 380.625 284.861,380.688 285.083,380.563 285.479 C 380.359 286.123,380.402 286.117,380.967 285.424 C 381.315 284.996,381.600 284.231,381.600 283.724 C 381.600 283.216,381.780 282.800,382.000 282.800 C 382.220 282.800,382.400 282.369,382.400 281.843 C 382.400 281.316,382.670 280.782,383.000 280.655 C 383.330 280.529,383.600 279.989,383.600 279.455 C 383.600 278.922,383.870 278.382,384.200 278.255 C 384.530 278.129,384.800 277.670,384.800 277.236 C 384.800 276.802,384.980 276.336,385.200 276.200 C 385.420 276.064,385.600 275.333,385.600 274.576 C 385.600 273.620,385.783 273.200,386.200 273.200 C 386.573 273.200,386.800 272.822,386.800 272.200 C 386.800 271.650,386.980 271.200,387.200 271.200 C 387.420 271.200,387.600 270.480,387.600 269.600 C 387.600 268.444,387.767 268.000,388.200 268.000 C 388.631 268.000,388.800 267.560,388.800 266.443 C 388.800 265.428,389.009 264.805,389.400 264.655 C 389.796 264.503,390.000 263.877,390.000 262.813 C 390.000 261.926,390.180 261.200,390.400 261.200 C 390.620 261.200,390.800 260.300,390.800 259.200 C 390.800 257.689,390.947 257.200,391.400 257.200 C 391.831 257.200,392.000 256.760,392.000 255.643 C 392.000 254.628,392.209 254.005,392.600 253.855 C 393.011 253.698,393.200 253.055,393.200 251.813 C 393.200 250.785,393.386 250.000,393.631 250.000 C 393.868 250.000,394.029 249.415,393.990 248.700 C 393.858 246.282,393.992 245.600,394.600 245.600 C 395.059 245.600,395.200 245.094,395.200 243.443 C 395.200 241.894,395.369 241.221,395.800 241.055 C 396.259 240.879,396.400 240.124,396.400 237.836 C 396.400 236.192,396.580 234.736,396.800 234.600 C 397.020 234.464,397.200 232.853,397.200 231.019 C 397.200 228.425,397.333 227.635,397.800 227.455 C 398.556 227.165,398.642 223.764,397.900 223.465 C 397.500 223.304,397.500 223.257,397.900 223.232 C 398.245 223.210,398.400 222.403,398.400 220.633 C 398.400 218.935,398.569 218.010,398.900 217.900 C 399.735 217.622,399.850 184.307,399.019 183.476 C 398.535 182.992,398.400 181.890,398.400 178.416 C 398.400 174.837,398.283 173.930,397.800 173.745 C 397.329 173.564,397.200 172.750,397.200 169.957 C 397.200 167.852,397.037 166.400,396.800 166.400 C 396.569 166.400,396.400 165.143,396.400 163.429 C 396.400 161.321,396.226 160.283,395.800 159.857 C 395.442 159.499,395.200 158.521,395.200 157.429 C 395.200 156.070,395.046 155.600,394.600 155.600 C 394.139 155.600,394.000 155.089,394.000 153.400 C 394.000 152.190,393.820 151.200,393.600 151.200 C 393.380 151.200,393.200 150.399,393.200 149.420 C 393.200 148.174,393.000 147.528,392.533 147.267 C 392.082 147.014,391.885 146.422,391.922 145.430 C 391.958 144.471,391.774 143.888,391.388 143.740 C 390.996 143.590,390.800 142.938,390.800 141.781 C 390.800 140.827,390.620 139.936,390.400 139.800 C 390.180 139.664,390.000 138.928,390.000 138.164 C 390.000 137.298,389.774 136.688,389.400 136.545 C 389.009 136.395,388.800 135.772,388.800 134.757 C 388.800 133.885,388.605 133.200,388.357 133.200 C 388.114 133.200,388.022 133.479,388.153 133.821 C 388.289 134.177,388.222 134.337,387.995 134.197 C 387.778 134.063,387.600 133.063,387.600 131.976 C 387.600 130.889,387.420 130.000,387.200 130.000 C 386.980 130.000,386.800 129.550,386.800 129.000 C 386.800 128.378,386.573 128.000,386.200 128.000 C 385.638 128.000,385.411 127.297,385.577 126.070 C 385.616 125.779,385.419 125.263,385.137 124.924 C 384.856 124.585,384.620 123.924,384.613 123.454 C 384.606 122.984,384.375 122.645,384.100 122.700 C 383.797 122.761,383.600 122.366,383.600 121.695 C 383.600 120.946,383.319 120.463,382.726 120.195 C 382.245 119.978,381.772 119.550,381.674 119.244 C 381.567 118.908,381.675 118.799,381.948 118.968 C 382.197 119.122,382.400 119.057,382.400 118.824 C 382.400 118.591,382.236 118.400,382.035 118.400 C 381.834 118.400,381.549 117.680,381.400 116.800 C 381.251 115.920,380.966 115.200,380.765 115.200 C 380.564 115.200,380.400 114.750,380.400 114.200 C 380.400 113.578,380.173 113.200,379.800 113.200 C 379.400 113.200,379.200 112.800,379.200 112.000 C 379.200 111.340,379.020 110.800,378.800 110.800 C 378.580 110.800,378.400 110.434,378.400 109.987 C 378.400 109.541,378.130 109.071,377.800 108.945 C 377.470 108.818,377.200 108.284,377.200 107.757 C 377.200 107.173,376.966 106.800,376.600 106.800 C 376.222 106.800,376.000 106.419,376.000 105.771 C 376.000 104.717,375.192 103.600,374.429 103.600 C 374.193 103.600,374.000 103.060,374.000 102.400 C 374.000 101.600,373.800 101.200,373.400 101.200 C 373.027 101.200,372.800 100.822,372.800 100.200 C 372.800 99.650,372.640 99.200,372.443 99.200 C 372.247 99.200,371.974 98.750,371.836 98.200 C 371.698 97.650,371.408 97.200,371.192 97.200 C 370.977 97.200,370.800 96.930,370.800 96.600 C 370.800 96.270,370.530 96.000,370.200 96.000 C 369.827 96.000,369.600 95.622,369.600 95.000 C 369.600 94.450,369.420 94.000,369.200 94.000 C 368.980 94.000,368.800 93.730,368.800 93.400 C 368.800 93.070,368.530 92.800,368.200 92.800 C 367.827 92.800,367.600 92.422,367.600 91.800 C 367.600 91.178,367.373 90.800,367.000 90.800 C 366.670 90.800,366.400 90.530,366.400 90.200 C 366.400 89.870,366.220 89.600,366.000 89.600 C 365.780 89.600,365.600 89.150,365.600 88.600 C 365.600 87.978,365.373 87.600,365.000 87.600 C 364.670 87.600,364.400 87.330,364.400 87.000 C 364.400 86.670,364.130 86.400,363.800 86.400 C 363.427 86.400,363.200 86.022,363.200 85.400 C 363.200 84.850,363.020 84.400,362.800 84.400 C 362.580 84.400,362.400 84.130,362.400 83.800 C 362.400 83.470,362.130 83.200,361.800 83.200 C 361.459 83.200,361.200 82.841,361.200 82.369 C 361.200 81.506,359.185 79.200,358.431 79.200 C 358.194 79.200,358.000 78.930,358.000 78.600 C 358.000 78.270,357.840 78.000,357.643 78.000 C 357.447 78.000,357.174 77.550,357.036 77.000 C 356.898 76.450,356.608 76.000,356.392 76.000 C 356.177 76.000,356.000 75.709,356.000 75.353 C 356.000 74.912,355.756 74.771,355.230 74.908 C 354.695 75.048,354.524 74.943,354.669 74.565 C 354.904 73.952,353.840 72.693,353.432 73.102 C 353.287 73.246,353.064 72.968,352.937 72.483 C 352.811 71.997,352.488 71.600,352.221 71.600 C 351.954 71.600,351.494 71.150,351.200 70.600 C 350.906 70.050,350.425 69.600,350.132 69.600 C 349.831 69.600,349.600 69.166,349.600 68.600 C 349.600 67.978,349.373 67.600,349.000 67.600 C 348.670 67.600,348.400 67.311,348.400 66.957 C 348.400 66.573,348.176 66.400,347.845 66.527 C 347.456 66.677,347.351 66.510,347.492 65.970 C 347.608 65.528,347.490 65.200,347.216 65.200 C 346.621 65.200,344.400 63.016,344.400 62.431 C 344.400 62.194,344.130 62.000,343.800 62.000 C 343.470 62.000,343.200 61.820,343.200 61.600 C 343.200 61.380,342.930 61.200,342.600 61.200 C 342.270 61.200,342.000 61.006,342.000 60.769 C 342.000 60.113,339.744 58.000,339.043 58.000 C 338.658 58.000,338.512 57.774,338.655 57.400 C 338.782 57.070,338.686 56.800,338.443 56.800 C 338.199 56.800,338.000 56.530,338.000 56.200 C 338.000 55.870,337.814 55.600,337.587 55.600 C 337.069 55.600,334.800 53.309,334.800 52.786 C 334.800 52.574,334.530 52.400,334.200 52.400 C 333.870 52.400,333.600 52.220,333.600 52.000 C 333.600 51.780,333.150 51.600,332.600 51.600 C 331.978 51.600,331.600 51.373,331.600 51.000 C 331.600 50.670,331.330 50.400,331.000 50.400 C 330.670 50.400,330.400 50.119,330.400 49.776 C 330.400 49.433,330.220 49.264,330.000 49.400 C 329.780 49.536,329.600 49.367,329.600 49.024 C 329.600 48.681,329.330 48.400,329.000 48.400 C 328.670 48.400,328.400 48.130,328.400 47.800 C 328.400 47.470,328.130 47.200,327.800 47.200 C 327.470 47.200,327.200 46.908,327.200 46.551 C 327.200 46.047,327.077 46.004,326.653 46.356 C 326.233 46.704,325.977 46.646,325.553 46.105 C 325.051 45.465,325.065 45.451,325.700 45.949 C 326.305 46.423,326.400 46.410,326.400 45.849 C 326.400 45.492,326.149 45.200,325.843 45.200 C 325.536 45.200,325.182 44.930,325.055 44.600 C 324.929 44.270,324.525 44.000,324.158 44.000 C 323.792 44.000,323.075 43.550,322.565 43.000 C 322.055 42.450,321.450 42.000,321.219 42.000 C 320.989 42.000,320.800 41.807,320.800 41.571 C 320.800 40.834,319.614 39.916,318.586 39.857 C 318.044 39.826,317.600 39.667,317.600 39.505 C 317.600 38.873,316.185 37.600,315.483 37.600 C 314.672 37.600,313.600 36.706,313.600 36.029 C 313.600 35.793,313.090 35.600,312.468 35.600 C 311.669 35.600,311.177 35.305,310.800 34.600 C 310.464 33.972,309.918 33.600,309.332 33.600 C 308.770 33.600,308.400 33.362,308.400 33.000 C 308.400 32.670,308.149 32.400,307.843 32.400 C 307.536 32.400,307.182 32.130,307.055 31.800 C 306.929 31.470,306.459 31.200,306.013 31.200 C 305.566 31.200,305.200 31.020,305.200 30.800 C 305.200 30.580,304.949 30.400,304.643 30.400 C 304.336 30.400,303.982 30.130,303.855 29.800 C 303.729 29.470,303.279 29.200,302.855 29.200 C 302.432 29.200,301.982 28.930,301.855 28.600 C 301.729 28.270,301.169 28.000,300.613 28.000 C 300.056 28.000,299.600 27.820,299.600 27.600 C 299.600 27.380,299.150 27.200,298.600 27.200 C 297.978 27.200,297.600 26.973,297.600 26.600 C 297.600 26.270,297.349 26.000,297.043 26.000 C 296.736 26.000,296.382 25.730,296.255 25.400 C 296.129 25.070,295.659 24.800,295.213 24.800 C 294.766 24.800,294.400 24.620,294.400 24.400 C 294.400 24.180,293.969 24.000,293.443 24.000 C 292.916 24.000,292.382 23.730,292.255 23.400 C 292.129 23.070,291.589 22.800,291.055 22.800 C 290.522 22.800,289.985 22.539,289.863 22.219 C 289.736 21.889,289.286 21.706,288.820 21.796 C 288.299 21.896,288.000 21.743,288.000 21.377 C 288.000 21.035,287.610 20.800,287.043 20.800 C 286.516 20.800,285.975 20.511,285.839 20.157 C 285.659 19.687,285.215 19.557,284.196 19.676 C 283.182 19.795,282.800 19.684,282.800 19.273 C 282.800 18.894,282.521 18.780,281.956 18.927 C 281.346 19.087,281.055 18.933,280.909 18.374 C 280.768 17.834,280.357 17.600,279.553 17.600 C 278.795 17.600,278.400 17.395,278.400 17.000 C 278.400 16.648,278.028 16.395,277.500 16.387 C 277.005 16.380,276.249 16.109,275.821 15.785 C 275.393 15.461,274.717 15.300,274.319 15.426 C 273.871 15.568,273.504 15.417,273.355 15.028 C 273.223 14.682,272.703 14.400,272.200 14.400 C 271.697 14.400,271.182 14.130,271.055 13.800 C 270.911 13.423,270.299 13.200,269.413 13.200 C 268.636 13.200,268.000 13.020,268.000 12.800 C 268.000 12.580,267.299 12.400,266.443 12.400 C 265.441 12.400,264.805 12.190,264.660 11.812 C 264.515 11.435,263.937 11.242,263.052 11.275 C 262.238 11.306,261.397 11.054,261.006 10.663 C 260.614 10.271,259.702 10.000,258.771 10.000 C 257.907 10.000,257.200 9.820,257.200 9.600 C 257.200 9.380,256.480 9.200,255.600 9.200 C 254.444 9.200,254.000 9.033,254.000 8.600 C 254.000 8.139,253.489 8.000,251.800 8.000 C 250.253 8.000,249.630 7.852,249.700 7.500 C 249.768 7.162,249.118 6.961,247.700 6.879 C 246.545 6.813,245.600 6.588,245.600 6.379 C 245.600 6.171,244.610 6.000,243.400 6.000 C 241.711 6.000,241.200 5.861,241.200 5.400 C 241.200 4.919,240.597 4.800,238.171 4.800 C 236.013 4.800,234.971 4.628,234.543 4.200 C 234.111 3.768,233.060 3.600,230.795 3.600 C 229.064 3.600,227.536 3.420,227.400 3.200 C 227.259 2.971,225.210 2.800,222.619 2.800 C 219.018 2.800,218.040 2.680,217.862 2.217 C 217.526 1.341,183.674 1.341,183.338 2.217 M287.429 115.771 C 287.743 116.086,288.000 116.536,288.000 116.771 C 288.000 117.007,288.251 117.200,288.557 117.200 C 288.864 117.200,289.218 117.470,289.345 117.800 C 289.471 118.130,289.941 118.400,290.387 118.400 C 290.834 118.400,291.200 118.580,291.200 118.800 C 291.200 119.020,291.470 119.200,291.800 119.200 C 292.130 119.200,292.400 119.374,292.400 119.586 C 292.400 120.109,294.669 122.400,295.187 122.400 C 295.414 122.400,295.600 122.670,295.600 123.000 C 295.600 123.549,296.088 123.784,296.930 123.637 C 297.111 123.606,297.145 123.766,297.004 123.993 C 296.721 124.451,297.699 125.600,298.371 125.600 C 298.607 125.600,298.800 125.804,298.800 126.053 C 298.800 126.659,300.378 128.000,301.090 128.000 C 301.757 128.000,302.800 128.958,302.800 129.571 C 302.800 129.807,303.070 130.000,303.400 130.000 C 303.730 130.000,304.000 130.270,304.000 130.600 C 304.000 130.930,304.193 131.200,304.429 131.200 C 304.982 131.200,306.000 132.218,306.000 132.771 C 306.000 133.007,306.174 133.200,306.386 133.200 C 306.909 133.200,309.200 135.469,309.200 135.987 C 309.200 136.214,309.378 136.400,309.595 136.400 C 310.092 136.400,311.600 137.671,311.600 138.089 C 311.600 138.260,311.330 138.400,311.000 138.400 C 310.670 138.400,310.400 138.670,310.400 139.000 C 310.400 139.330,310.207 139.600,309.971 139.600 C 309.736 139.600,309.286 139.857,308.971 140.171 C 308.657 140.486,308.400 140.936,308.400 141.171 C 308.400 141.407,308.130 141.600,307.800 141.600 C 307.470 141.600,307.200 141.870,307.200 142.200 C 307.200 142.530,306.919 142.800,306.576 142.800 C 306.233 142.800,306.064 142.980,306.200 143.200 C 306.336 143.420,306.167 143.600,305.824 143.600 C 305.481 143.600,305.200 143.780,305.200 144.000 C 305.200 144.519,303.719 146.000,303.200 146.000 C 302.980 146.000,302.800 146.270,302.800 146.600 C 302.800 146.930,302.620 147.200,302.400 147.200 C 302.180 147.200,302.000 147.650,302.000 148.200 C 302.000 148.822,301.773 149.200,301.400 149.200 C 301.070 149.200,300.800 149.380,300.800 149.600 C 300.800 149.820,300.530 150.000,300.200 150.000 C 299.870 150.000,299.600 150.270,299.600 150.600 C 299.600 150.930,299.409 151.200,299.176 151.200 C 298.943 151.200,298.865 151.381,299.002 151.603 C 299.139 151.824,298.929 152.129,298.537 152.280 C 297.401 152.716,295.526 154.831,295.753 155.421 C 295.884 155.764,295.752 155.880,295.388 155.740 C 294.630 155.449,292.400 157.710,292.400 158.769 C 292.400 159.241,292.141 159.600,291.800 159.600 C 291.470 159.600,291.200 159.851,291.200 160.157 C 291.200 160.464,290.919 160.822,290.575 160.954 C 290.231 161.086,290.061 161.376,290.198 161.597 C 290.335 161.819,290.167 162.000,289.824 162.000 C 289.481 162.000,289.200 162.180,289.200 162.400 C 289.200 162.620,288.930 162.800,288.600 162.800 C 288.270 162.800,288.000 162.986,288.000 163.213 C 288.000 163.731,285.709 166.000,285.186 166.000 C 284.974 166.000,284.800 166.194,284.800 166.431 C 284.800 166.669,284.080 167.576,283.200 168.447 C 282.320 169.318,281.600 170.307,281.600 170.644 C 281.600 171.370,280.653 172.400,279.986 172.400 C 279.727 172.400,279.618 172.670,279.745 173.000 C 279.901 173.408,279.723 173.600,279.187 173.600 C 278.754 173.600,278.400 173.793,278.400 174.029 C 278.400 174.582,277.382 175.600,276.829 175.600 C 276.593 175.600,276.400 175.870,276.400 176.200 C 276.400 176.530,276.207 176.800,275.971 176.800 C 275.418 176.800,274.400 177.818,274.400 178.371 C 274.400 178.607,274.130 178.800,273.800 178.800 C 273.470 178.800,273.200 179.051,273.200 179.357 C 273.200 179.664,272.944 180.013,272.631 180.133 C 272.283 180.266,272.146 180.671,272.278 181.176 C 272.430 181.757,272.303 182.000,271.847 182.000 C 271.491 182.000,271.200 182.270,271.200 182.600 C 271.200 182.930,271.014 183.200,270.787 183.200 C 270.269 183.200,268.000 185.491,268.000 186.014 C 268.000 186.226,267.806 186.400,267.569 186.400 C 267.009 186.400,264.800 188.609,264.800 189.169 C 264.800 189.406,264.607 189.600,264.371 189.600 C 263.671 189.600,262.706 190.778,262.930 191.361 C 263.055 191.688,262.877 191.881,262.478 191.850 C 262.116 191.823,261.792 192.025,261.760 192.300 C 261.727 192.575,261.678 192.980,261.650 193.200 C 261.623 193.420,261.330 193.600,261.000 193.600 C 260.670 193.600,260.400 193.870,260.400 194.200 C 260.400 194.530,260.220 194.800,260.000 194.800 C 259.780 194.800,259.600 195.064,259.600 195.387 C 259.600 195.745,259.365 195.885,259.000 195.745 C 258.670 195.618,258.400 195.707,258.400 195.943 C 258.400 196.497,255.925 199.032,255.513 198.900 C 255.341 198.845,255.200 199.070,255.200 199.400 C 255.200 199.730,254.930 200.000,254.600 200.000 C 254.270 200.000,254.000 200.227,254.000 200.505 C 254.000 200.783,253.550 201.348,253.000 201.761 C 252.428 202.191,252.000 202.916,252.000 203.456 C 252.000 203.975,251.807 204.400,251.571 204.400 C 251.018 204.400,250.000 205.418,250.000 205.971 C 250.000 206.207,249.730 206.400,249.400 206.400 C 249.070 206.400,248.800 206.593,248.800 206.829 C 248.800 207.382,247.782 208.400,247.229 208.400 C 246.993 208.400,246.800 208.670,246.800 209.000 C 246.800 209.330,246.530 209.600,246.200 209.600 C 245.870 209.600,245.600 209.870,245.600 210.200 C 245.600 210.530,245.300 210.800,244.933 210.800 C 244.567 210.800,244.372 210.905,244.500 211.033 C 244.785 211.318,243.358 212.800,242.800 212.800 C 242.580 212.800,242.400 213.055,242.400 213.367 C 242.400 213.678,242.210 213.997,241.978 214.074 C 241.746 214.151,241.512 214.516,241.458 214.885 C 241.404 215.253,240.694 216.183,239.880 216.951 C 239.066 217.718,238.400 218.538,238.400 218.773 C 238.400 219.008,238.226 219.200,238.014 219.200 C 237.491 219.200,235.200 221.469,235.200 221.987 C 235.200 222.214,234.930 222.400,234.600 222.400 C 234.270 222.400,234.000 222.681,234.000 223.024 C 234.000 223.367,233.852 223.556,233.671 223.444 C 233.188 223.145,232.000 224.681,232.000 225.605 C 232.000 226.045,231.732 226.400,231.400 226.400 C 231.070 226.400,230.800 226.670,230.800 227.000 C 230.800 227.330,230.530 227.600,230.200 227.600 C 229.870 227.600,229.600 227.793,229.600 228.029 C 229.600 228.582,228.582 229.600,228.029 229.600 C 227.793 229.600,227.600 229.870,227.600 230.200 C 227.600 230.530,227.330 230.800,227.000 230.800 C 226.614 230.800,226.398 231.192,226.394 231.900 C 226.389 232.757,226.302 232.868,226.000 232.400 C 225.742 232.000,225.610 231.967,225.606 232.300 C 225.603 232.575,225.330 232.800,225.000 232.800 C 224.670 232.800,224.400 233.051,224.400 233.357 C 224.400 233.664,224.119 234.022,223.775 234.154 C 223.431 234.286,223.261 234.576,223.398 234.797 C 223.535 235.019,223.367 235.200,223.024 235.200 C 222.681 235.200,222.400 235.393,222.400 235.629 C 222.400 235.864,222.120 236.337,221.777 236.680 C 221.434 237.023,221.249 237.550,221.364 237.852 C 221.484 238.163,221.321 238.400,220.987 238.400 C 220.664 238.400,220.400 238.580,220.400 238.800 C 220.400 239.020,220.130 239.200,219.800 239.200 C 219.470 239.200,219.200 239.470,219.200 239.800 C 219.200 240.130,218.930 240.400,218.600 240.400 C 218.270 240.400,218.000 240.670,218.000 241.000 C 218.000 241.330,217.775 241.555,217.500 241.500 C 217.225 241.445,217.045 241.625,217.100 241.900 C 217.155 242.175,216.930 242.400,216.600 242.400 C 216.270 242.400,216.000 242.670,216.000 243.000 C 216.000 243.330,215.807 243.600,215.571 243.600 C 215.018 243.600,214.000 244.618,214.000 245.171 C 214.000 245.407,213.730 245.600,213.400 245.600 C 213.070 245.600,212.800 245.851,212.800 246.157 C 212.800 246.464,212.510 246.826,212.155 246.962 C 211.608 247.172,211.591 247.315,212.042 247.905 C 212.334 248.287,212.423 248.474,212.239 248.319 C 211.859 248.000,210.800 248.922,210.800 249.571 C 210.800 249.807,210.530 250.000,210.200 250.000 C 209.870 250.000,209.600 250.180,209.600 250.400 C 209.600 250.620,209.330 250.800,209.000 250.800 C 208.670 250.800,208.400 251.070,208.400 251.400 C 208.400 251.730,208.220 252.000,208.000 252.000 C 207.780 252.000,207.600 252.270,207.600 252.600 C 207.600 252.930,207.330 253.200,207.000 253.200 C 206.670 253.200,206.400 253.380,206.400 253.600 C 206.400 253.820,206.130 254.000,205.800 254.000 C 205.470 254.000,205.200 254.270,205.200 254.600 C 205.200 254.930,205.020 255.200,204.800 255.200 C 204.580 255.200,204.386 255.695,204.368 256.300 C 204.351 256.905,204.246 257.175,204.135 256.900 C 203.850 256.193,203.200 256.278,203.200 257.024 C 203.200 257.367,203.019 257.535,202.797 257.398 C 202.576 257.261,202.289 257.476,202.161 257.875 C 201.655 259.447,201.040 260.400,200.532 260.400 C 200.240 260.400,200.000 260.604,200.000 260.854 C 200.000 261.104,199.550 261.725,199.000 262.235 C 198.450 262.745,198.000 263.345,198.000 263.568 C 198.000 263.792,197.730 263.871,197.400 263.745 C 197.020 263.599,196.800 263.750,196.800 264.157 C 196.800 264.511,196.536 264.800,196.213 264.800 C 195.829 264.800,195.714 265.031,195.881 265.466 C 196.053 265.915,195.983 266.037,195.665 265.840 C 195.398 265.675,195.091 265.819,194.954 266.175 C 194.822 266.519,194.464 266.800,194.157 266.800 C 193.851 266.800,193.600 267.004,193.600 267.254 C 193.600 267.504,193.150 268.125,192.600 268.635 C 192.050 269.145,191.600 269.930,191.600 270.381 C 191.600 270.842,191.338 271.200,191.000 271.200 C 190.670 271.200,190.400 271.500,190.400 271.867 C 190.400 272.233,190.295 272.428,190.167 272.300 C 189.882 272.015,188.400 273.442,188.400 274.000 C 188.400 274.220,188.207 274.400,187.971 274.400 C 187.418 274.400,186.400 275.418,186.400 275.971 C 186.400 276.207,186.130 276.400,185.800 276.400 C 185.470 276.400,185.200 276.670,185.200 277.000 C 185.200 277.330,185.007 277.600,184.771 277.600 C 184.218 277.600,183.200 278.618,183.200 279.171 C 183.200 279.407,182.930 279.600,182.600 279.600 C 182.262 279.600,182.000 279.958,182.000 280.419 C 182.000 280.870,181.550 281.655,181.000 282.165 C 180.450 282.675,180.000 283.296,180.000 283.546 C 180.000 283.796,179.730 284.000,179.400 284.000 C 179.070 284.000,178.800 284.180,178.800 284.400 C 178.800 284.620,178.530 284.800,178.200 284.800 C 177.870 284.800,177.600 285.070,177.600 285.400 C 177.600 285.730,177.420 286.000,177.200 286.000 C 176.980 286.000,176.800 286.270,176.800 286.600 C 176.800 286.930,176.511 287.200,176.157 287.200 C 175.741 287.200,175.598 287.418,175.753 287.821 C 175.884 288.164,175.820 288.336,175.610 288.206 C 175.190 287.946,173.600 289.365,173.600 290.000 C 173.600 290.220,173.349 290.400,173.043 290.400 C 172.353 290.400,171.789 291.498,171.646 293.124 C 171.621 293.412,171.419 293.535,171.197 293.398 C 170.976 293.261,170.686 293.431,170.554 293.775 C 170.422 294.119,170.064 294.400,169.757 294.400 C 169.451 294.400,169.200 294.670,169.200 295.000 C 169.200 295.330,168.919 295.600,168.576 295.600 C 168.233 295.600,168.064 295.780,168.200 296.000 C 168.336 296.220,168.167 296.400,167.824 296.400 C 167.481 296.400,167.200 296.670,167.200 297.000 C 167.200 297.330,166.930 297.600,166.600 297.600 C 166.270 297.600,166.000 297.851,166.000 298.157 C 166.000 298.464,165.719 298.822,165.375 298.954 C 165.031 299.086,164.860 299.374,164.995 299.593 C 165.138 299.822,164.979 299.890,164.621 299.753 C 164.279 299.622,164.000 299.354,164.000 299.157 C 164.000 298.961,163.730 298.800,163.400 298.800 C 163.070 298.800,162.800 298.620,162.800 298.400 C 162.800 298.180,162.440 297.640,162.000 297.200 C 161.250 296.450,161.010 296.499,161.175 297.368 C 161.214 297.570,160.965 297.503,160.623 297.219 C 159.930 296.644,159.776 296.214,160.400 296.600 C 160.620 296.736,160.800 296.567,160.800 296.224 C 160.800 295.881,160.530 295.600,160.200 295.600 C 159.870 295.600,159.600 295.426,159.600 295.214 C 159.600 294.691,157.331 292.400,156.813 292.400 C 156.586 292.400,156.400 292.207,156.400 291.971 C 156.400 291.418,155.382 290.400,154.829 290.400 C 154.593 290.400,154.400 290.130,154.400 289.800 C 154.400 289.470,154.130 289.200,153.800 289.200 C 153.470 289.200,153.200 289.007,153.200 288.771 C 153.200 288.218,152.182 287.200,151.629 287.200 C 151.393 287.200,151.200 286.930,151.200 286.600 C 151.200 286.270,150.960 286.000,150.668 286.000 C 150.375 286.000,149.894 285.550,149.600 285.000 C 149.306 284.450,148.825 284.000,148.532 284.000 C 148.240 284.000,148.000 283.730,148.000 283.400 C 148.000 283.070,147.760 282.800,147.468 282.800 C 147.175 282.800,146.694 282.350,146.400 281.800 C 146.106 281.250,145.625 280.800,145.332 280.800 C 145.040 280.800,144.800 280.530,144.800 280.200 C 144.800 279.870,144.530 279.600,144.200 279.600 C 143.870 279.600,143.600 279.407,143.600 279.171 C 143.600 278.618,142.582 277.600,142.029 277.600 C 141.793 277.600,141.600 277.330,141.600 277.000 C 141.600 276.670,141.330 276.400,141.000 276.400 C 140.670 276.400,140.400 276.207,140.400 275.971 C 140.400 275.418,139.382 274.400,138.829 274.400 C 138.593 274.400,138.400 274.220,138.400 274.000 C 138.400 273.442,136.918 272.015,136.633 272.300 C 136.505 272.428,136.400 272.233,136.400 271.867 C 136.400 271.500,136.130 271.200,135.800 271.200 C 135.470 271.200,135.200 271.026,135.200 270.814 C 135.200 270.291,132.931 268.000,132.413 268.000 C 132.186 268.000,132.000 267.814,132.000 267.587 C 132.000 267.069,129.709 264.800,129.186 264.800 C 128.974 264.800,128.800 264.607,128.800 264.371 C 128.800 263.818,127.782 262.800,127.229 262.800 C 126.993 262.800,126.800 262.530,126.800 262.200 C 126.800 261.870,126.560 261.600,126.268 261.600 C 125.975 261.600,125.494 261.150,125.200 260.600 C 124.906 260.050,124.425 259.600,124.132 259.600 C 123.840 259.600,123.600 259.330,123.600 259.000 C 123.600 258.670,123.360 258.400,123.068 258.400 C 122.775 258.400,122.294 257.950,122.000 257.400 C 121.706 256.850,121.225 256.400,120.932 256.400 C 120.640 256.400,120.400 256.130,120.400 255.800 C 120.400 255.470,120.130 255.200,119.800 255.200 C 119.470 255.200,119.200 255.007,119.200 254.771 C 119.200 254.218,118.182 253.200,117.629 253.200 C 117.393 253.200,117.200 252.930,117.200 252.600 C 117.200 252.270,116.930 252.000,116.600 252.000 C 116.270 252.000,116.000 251.807,116.000 251.571 C 116.000 251.018,114.982 250.000,114.429 250.000 C 114.193 250.000,114.000 249.730,114.000 249.400 C 114.000 249.070,113.730 248.800,113.400 248.800 C 113.070 248.800,112.800 248.519,112.800 248.176 C 112.800 247.833,112.620 247.664,112.400 247.800 C 112.180 247.936,112.000 247.767,112.000 247.424 C 112.000 247.081,111.730 246.800,111.400 246.800 C 111.070 246.800,110.800 246.626,110.800 246.414 C 110.800 245.891,108.531 243.600,108.013 243.600 C 107.786 243.600,107.600 243.414,107.600 243.187 C 107.600 242.669,105.309 240.400,104.786 240.400 C 104.574 240.400,104.400 240.207,104.400 239.971 C 104.400 239.418,103.382 238.400,102.829 238.400 C 102.593 238.400,102.400 238.130,102.400 237.800 C 102.400 237.470,102.160 237.200,101.868 237.200 C 101.575 237.200,101.094 236.750,100.800 236.200 C 100.506 235.650,100.025 235.200,99.732 235.200 C 99.440 235.200,99.200 234.930,99.200 234.600 C 99.200 233.905,98.537 233.788,98.319 234.444 C 98.230 234.709,97.936 234.598,97.585 234.167 C 97.233 233.733,97.199 233.566,97.500 233.747 C 97.775 233.912,97.994 233.902,97.987 233.724 C 97.965 233.163,96.932 232.000,96.456 232.000 C 96.205 232.000,96.000 231.730,96.000 231.400 C 96.000 231.070,95.730 230.800,95.400 230.800 C 95.070 230.800,94.800 230.607,94.800 230.371 C 94.800 229.818,93.782 228.800,93.229 228.800 C 92.993 228.800,92.800 228.530,92.800 228.200 C 92.800 227.870,92.530 227.600,92.200 227.600 C 91.870 227.600,91.600 227.407,91.600 227.171 C 91.600 226.618,90.582 225.600,90.029 225.600 C 89.793 225.600,89.600 225.330,89.600 225.000 C 89.600 224.670,89.870 224.400,90.200 224.400 C 90.530 224.400,90.800 224.207,90.800 223.971 C 90.800 223.418,91.818 222.400,92.371 222.400 C 92.607 222.400,92.800 222.130,92.800 221.800 C 92.800 221.470,93.070 221.200,93.400 221.200 C 93.730 221.200,94.000 221.007,94.000 220.771 C 94.000 220.218,95.018 219.200,95.571 219.200 C 95.807 219.200,96.000 218.930,96.000 218.600 C 96.000 218.270,96.270 218.000,96.600 218.000 C 96.930 218.000,97.200 217.807,97.200 217.571 C 97.200 217.018,98.218 216.000,98.771 216.000 C 99.007 216.000,99.200 215.730,99.200 215.400 C 99.200 215.070,99.470 214.800,99.800 214.800 C 100.130 214.800,100.400 214.607,100.400 214.371 C 100.400 213.818,101.418 212.800,101.971 212.800 C 102.207 212.800,102.400 212.530,102.400 212.200 C 102.400 211.870,102.593 211.600,102.829 211.600 C 103.382 211.600,104.400 210.582,104.400 210.029 C 104.400 209.793,104.670 209.600,105.000 209.600 C 105.330 209.600,105.600 209.330,105.600 209.000 C 105.600 208.670,105.793 208.400,106.029 208.400 C 106.582 208.400,107.600 207.382,107.600 206.829 C 107.600 206.593,107.870 206.400,108.200 206.400 C 108.530 206.400,108.800 206.130,108.800 205.800 C 108.800 205.470,108.993 205.200,109.229 205.200 C 109.782 205.200,110.800 204.182,110.800 203.629 C 110.800 203.393,111.070 203.200,111.400 203.200 C 111.730 203.200,112.000 203.007,112.000 202.771 C 112.000 202.218,113.018 201.200,113.571 201.200 C 113.807 201.200,114.000 201.380,114.000 201.600 C 114.000 201.820,114.270 202.000,114.600 202.000 C 114.930 202.000,115.200 202.194,115.200 202.431 C 115.200 203.087,117.456 205.200,118.157 205.200 C 118.542 205.200,118.688 205.426,118.545 205.800 C 118.386 206.213,118.570 206.400,119.134 206.400 C 119.584 206.400,120.063 206.578,120.197 206.795 C 120.342 207.030,120.149 207.088,119.721 206.936 C 119.134 206.729,119.164 206.841,119.883 207.541 C 120.369 208.013,120.954 208.400,121.183 208.400 C 121.412 208.400,121.600 208.574,121.600 208.786 C 121.600 209.309,123.869 211.600,124.387 211.600 C 124.614 211.600,124.800 211.793,124.800 212.029 C 124.800 212.582,125.818 213.600,126.371 213.600 C 126.607 213.600,126.800 213.870,126.800 214.200 C 126.800 214.530,127.070 214.800,127.400 214.800 C 127.730 214.800,128.000 214.993,128.000 215.229 C 128.000 215.782,129.018 216.800,129.571 216.800 C 129.807 216.800,130.000 217.070,130.000 217.400 C 130.000 217.739,130.358 218.000,130.824 218.000 C 131.277 218.000,131.535 218.181,131.398 218.403 C 131.120 218.853,132.106 220.000,132.771 220.000 C 133.007 220.000,133.200 220.270,133.200 220.600 C 133.200 220.930,133.470 221.200,133.800 221.200 C 134.130 221.200,134.400 221.393,134.400 221.629 C 134.400 222.182,135.418 223.200,135.971 223.200 C 136.207 223.200,136.400 223.470,136.400 223.800 C 136.400 224.130,136.670 224.400,137.000 224.400 C 137.330 224.400,137.600 224.593,137.600 224.829 C 137.600 225.064,137.857 225.514,138.171 225.829 C 138.486 226.143,138.936 226.400,139.171 226.400 C 139.407 226.400,139.600 226.574,139.600 226.786 C 139.600 227.309,141.869 229.600,142.387 229.600 C 142.614 229.600,142.800 229.870,142.800 230.200 C 142.800 230.530,143.070 230.800,143.400 230.800 C 143.730 230.800,143.955 231.025,143.900 231.300 C 143.845 231.575,144.025 231.755,144.300 231.700 C 144.575 231.645,144.800 231.870,144.800 232.200 C 144.800 232.530,145.070 232.800,145.400 232.800 C 145.730 232.800,146.000 233.070,146.000 233.400 C 146.000 233.730,146.281 234.000,146.624 234.000 C 146.967 234.000,147.156 234.148,147.044 234.329 C 146.817 234.696,148.190 236.000,148.805 236.000 C 149.022 236.000,149.200 236.193,149.200 236.429 C 149.200 236.664,149.457 237.114,149.771 237.429 C 150.086 237.743,150.536 238.000,150.771 238.000 C 151.007 238.000,151.200 238.270,151.200 238.600 C 151.200 238.930,151.470 239.200,151.800 239.200 C 152.130 239.200,152.400 239.393,152.400 239.629 C 152.400 239.864,152.657 240.314,152.971 240.629 C 153.286 240.943,153.736 241.200,153.971 241.200 C 154.207 241.200,154.400 241.470,154.400 241.800 C 154.400 242.130,154.670 242.400,155.000 242.400 C 155.330 242.400,155.600 242.593,155.600 242.829 C 155.600 243.064,155.857 243.514,156.171 243.829 C 156.486 244.143,156.936 244.400,157.171 244.400 C 157.407 244.400,157.600 244.670,157.600 245.000 C 157.600 245.330,157.870 245.600,158.200 245.600 C 158.530 245.600,158.800 245.793,158.800 246.029 C 158.800 246.264,159.057 246.714,159.371 247.029 C 159.686 247.343,160.136 247.600,160.371 247.600 C 160.607 247.600,160.800 247.870,160.800 248.200 C 160.800 248.633,161.244 248.800,162.400 248.800 C 163.556 248.800,164.000 248.633,164.000 248.200 C 164.000 247.870,164.180 247.600,164.400 247.600 C 164.620 247.600,164.800 247.349,164.800 247.043 C 164.800 246.736,165.070 246.382,165.400 246.255 C 165.730 246.129,166.000 245.659,166.000 245.213 C 166.000 244.766,166.193 244.400,166.429 244.400 C 166.664 244.400,167.114 244.143,167.429 243.829 C 167.743 243.514,168.000 243.064,168.000 242.829 C 168.000 242.593,168.270 242.400,168.600 242.400 C 168.930 242.400,169.200 242.130,169.200 241.800 C 169.200 241.470,169.393 241.200,169.629 241.200 C 169.864 241.200,170.314 240.943,170.629 240.629 C 170.943 240.314,171.200 239.864,171.200 239.629 C 171.200 239.393,171.470 239.200,171.800 239.200 C 172.130 239.200,172.400 238.930,172.400 238.600 C 172.400 238.270,172.593 238.000,172.829 238.000 C 173.064 238.000,173.514 237.743,173.829 237.429 C 174.143 237.114,174.400 236.664,174.400 236.429 C 174.400 236.193,174.670 236.000,175.000 236.000 C 175.330 236.000,175.600 235.730,175.600 235.400 C 175.600 235.070,175.772 234.800,175.981 234.800 C 176.191 234.800,176.661 234.170,177.027 233.400 C 177.392 232.630,177.941 232.000,178.246 232.000 C 178.551 232.000,178.800 231.730,178.800 231.400 C 178.800 231.070,179.070 230.800,179.400 230.800 C 179.730 230.800,180.000 230.607,180.000 230.371 C 180.000 229.818,181.018 228.800,181.571 228.800 C 181.807 228.800,182.000 228.530,182.000 228.200 C 182.000 227.870,182.270 227.600,182.600 227.600 C 182.930 227.600,183.200 227.406,183.200 227.169 C 183.200 226.932,183.919 226.067,184.798 225.247 C 186.076 224.055,186.297 223.656,185.898 223.255 C 185.500 222.853,185.533 222.803,186.062 223.005 C 186.892 223.320,188.400 222.080,188.400 221.083 C 188.400 220.272,189.294 219.200,189.971 219.200 C 190.207 219.200,190.400 218.930,190.400 218.600 C 190.400 218.270,190.670 218.000,191.000 218.000 C 191.330 218.000,191.600 217.807,191.600 217.571 C 191.600 217.018,192.618 216.000,193.171 216.000 C 193.407 216.000,193.600 215.730,193.600 215.400 C 193.600 215.070,193.870 214.800,194.200 214.800 C 194.530 214.800,194.800 214.607,194.800 214.371 C 194.800 213.818,195.818 212.800,196.371 212.800 C 196.607 212.800,196.800 212.530,196.800 212.200 C 196.800 211.870,197.070 211.600,197.400 211.600 C 197.730 211.600,198.000 211.439,198.000 211.242 C 198.000 211.045,198.447 210.460,198.993 209.942 C 199.539 209.424,199.989 208.766,199.993 208.481 C 199.997 208.195,200.450 207.545,201.000 207.035 C 201.550 206.525,202.000 205.904,202.000 205.654 C 202.000 205.404,202.188 205.200,202.417 205.200 C 203.115 205.200,204.503 203.689,204.222 203.235 C 204.060 202.974,204.199 202.901,204.579 203.047 C 204.982 203.202,205.200 203.059,205.200 202.643 C 205.200 202.289,205.394 202.000,205.631 202.000 C 206.191 202.000,208.400 199.791,208.400 199.231 C 208.400 198.994,208.601 198.800,208.847 198.800 C 209.512 198.800,211.586 196.308,211.594 195.500 C 211.597 195.115,211.870 194.800,212.200 194.800 C 212.530 194.800,212.800 194.530,212.800 194.200 C 212.800 193.870,212.980 193.600,213.200 193.600 C 213.420 193.600,213.600 193.330,213.600 193.000 C 213.600 192.670,213.881 192.400,214.224 192.400 C 214.567 192.400,214.736 192.220,214.600 192.000 C 214.464 191.780,214.723 191.600,215.176 191.600 C 215.642 191.600,216.000 191.339,216.000 191.000 C 216.000 190.670,216.180 190.400,216.400 190.400 C 216.620 190.400,216.800 190.145,216.800 189.834 C 216.800 189.522,217.340 189.028,218.000 188.736 C 218.660 188.444,219.200 188.063,219.200 187.890 C 219.200 187.717,220.100 186.703,221.200 185.638 C 222.364 184.509,223.200 183.345,223.200 182.850 C 223.200 182.361,223.455 182.000,223.800 182.000 C 224.130 182.000,224.400 181.730,224.400 181.400 C 224.400 181.070,224.593 180.800,224.829 180.800 C 225.382 180.800,226.400 179.782,226.400 179.229 C 226.400 178.993,226.670 178.800,227.000 178.800 C 227.339 178.800,227.600 178.442,227.600 177.976 C 227.600 177.523,227.781 177.265,228.003 177.402 C 228.453 177.680,229.600 176.694,229.600 176.029 C 229.600 175.793,229.870 175.600,230.200 175.600 C 230.530 175.600,230.800 175.330,230.800 175.000 C 230.800 174.670,230.993 174.400,231.229 174.400 C 231.782 174.400,232.800 173.382,232.800 172.829 C 232.800 172.593,233.070 172.400,233.400 172.400 C 233.730 172.400,234.000 172.207,234.000 171.971 C 234.000 171.736,234.272 171.271,234.604 170.939 C 234.936 170.607,235.104 170.169,234.978 169.965 C 234.852 169.761,235.031 169.486,235.375 169.354 C 235.719 169.222,236.000 168.864,236.000 168.557 C 236.000 168.251,236.193 168.000,236.429 168.000 C 236.982 168.000,238.000 166.982,238.000 166.429 C 238.000 166.193,238.270 166.000,238.600 166.000 C 238.930 166.000,239.200 165.730,239.200 165.400 C 239.200 165.070,239.393 164.800,239.629 164.800 C 240.182 164.800,241.200 163.782,241.200 163.229 C 241.200 162.993,241.394 162.800,241.631 162.800 C 241.868 162.800,242.588 162.274,243.231 161.631 C 243.874 160.988,244.400 160.268,244.400 160.031 C 244.400 159.794,244.670 159.600,245.000 159.600 C 245.336 159.600,245.600 159.243,245.600 158.787 C 245.600 158.341,245.870 157.871,246.200 157.745 C 246.530 157.618,246.800 157.341,246.800 157.129 C 246.800 156.610,247.838 155.600,248.371 155.600 C 248.607 155.600,248.800 155.426,248.800 155.214 C 248.800 154.666,251.081 152.400,251.633 152.400 C 251.886 152.400,252.005 152.063,251.897 151.651 C 251.747 151.074,251.874 150.947,252.451 151.097 C 252.873 151.208,253.200 151.086,253.200 150.818 C 253.200 150.226,254.197 149.200,254.771 149.200 C 255.007 149.200,255.200 149.011,255.200 148.781 C 255.200 148.550,255.650 147.945,256.200 147.435 C 256.750 146.925,257.200 146.124,257.200 145.654 C 257.200 145.162,257.454 144.800,257.800 144.800 C 258.130 144.800,258.400 144.530,258.400 144.200 C 258.400 143.870,258.593 143.600,258.829 143.600 C 259.382 143.600,260.400 142.582,260.400 142.029 C 260.400 141.793,260.670 141.600,261.000 141.600 C 261.330 141.600,261.600 141.407,261.600 141.171 C 261.600 140.618,262.618 139.600,263.171 139.600 C 263.407 139.600,263.600 139.330,263.600 139.000 C 263.600 138.670,263.870 138.400,264.200 138.400 C 264.530 138.400,264.800 138.119,264.800 137.776 C 264.800 137.433,264.980 137.264,265.200 137.400 C 265.420 137.536,265.600 137.367,265.600 137.024 C 265.600 136.681,265.870 136.400,266.200 136.400 C 266.530 136.400,266.800 136.130,266.800 135.800 C 266.800 135.470,267.070 135.200,267.400 135.200 C 267.730 135.200,268.000 134.930,268.000 134.600 C 268.000 134.270,268.180 134.000,268.400 134.000 C 268.620 134.000,268.800 133.550,268.800 133.000 C 268.800 132.378,269.027 132.000,269.400 132.000 C 269.730 132.000,270.000 131.820,270.000 131.600 C 270.000 131.380,270.270 131.200,270.600 131.200 C 270.930 131.200,271.200 130.930,271.200 130.600 C 271.200 130.270,271.380 130.000,271.600 130.000 C 271.820 130.000,272.000 129.730,272.000 129.400 C 272.000 129.070,272.194 128.800,272.431 128.800 C 272.991 128.800,275.200 126.591,275.200 126.031 C 275.200 125.794,275.394 125.600,275.631 125.600 C 276.365 125.600,278.491 123.213,278.269 122.637 C 278.129 122.271,278.289 122.151,278.753 122.272 C 279.242 122.400,279.674 122.006,280.223 120.933 C 281.130 119.159,281.773 118.400,282.371 118.400 C 282.607 118.400,282.800 118.130,282.800 117.800 C 282.800 117.470,283.070 117.200,283.400 117.200 C 283.730 117.200,284.000 117.012,284.000 116.783 C 284.000 115.396,286.357 114.700,287.429 115.771 " stroke="none" fill="#9278ff" fill-rule="evenodd"></path><path id="path1" d="" stroke="none" fill="#9278ff" fill-rule="evenodd"></path></g></svg>